<svg id="add_shopping_cart-24px" xmlns="http://www.w3.org/2000/svg" width="24" height="24" viewBox="0 0 24 24">
  <path id="Контур_20" data-name="Контур 20" d="M0,0H24V24H0ZM18.31,6l-2.76,5Z" fill="none"/>
  <path id="Контур_21" data-name="Контур 21" d="M7,18a2,2,0,1,0,2,2A2,2,0,0,0,7,18Zm10,0a2,2,0,1,0,2,2A2,2,0,0,0,17,18ZM7.17,14.75l.03-.12L8.1,13h7.45a1.991,1.991,0,0,0,1.75-1.03l3.86-7.01L19.42,4h-.01l-1.1,2-2.76,5H8.53l-.13-.27L6.16,6,5.21,4,4.27,2H1V4H3l3.6,7.59L5.25,14.04A1.933,1.933,0,0,0,5,15a2.006,2.006,0,0,0,2,2H19V15H7.42A.254.254,0,0,1,7.17,14.75Z" fill="#fff"/>
</svg>
