<svg id="add_shopping_cart-24px" xmlns="http://www.w3.org/2000/svg" width="20.9" height="20.9" viewBox="0 0 20.9 20.9">
  <path id="Контур_20" data-name="Контур 20" d="M0,0H20.9V20.9H0ZM15.945,5.225l-2.4,4.354Z" fill="none"/>
  <path id="Контур_21" data-name="Контур 21" d="M6.225,15.933a1.742,1.742,0,1,0,1.742,1.742A1.739,1.739,0,0,0,6.225,15.933Zm8.708,0a1.742,1.742,0,1,0,1.742,1.742A1.739,1.739,0,0,0,14.933,15.933ZM6.373,13.1,6.4,13l.784-1.419h6.488a1.733,1.733,0,0,0,1.524-.9l3.361-6.1-1.515-.836h-.009l-.958,1.742-2.4,4.354H7.557L7.444,9.6,5.493,5.483,4.666,3.742,3.848,2H1V3.742H2.742l3.135,6.61L4.7,12.485a1.684,1.684,0,0,0-.218.836,1.747,1.747,0,0,0,1.742,1.742h10.45V13.321H6.591A.221.221,0,0,1,6.373,13.1Z" transform="translate(-0.129 -0.258)" fill="#fff"/>
</svg>
