<svg id="lock-24px" xmlns="http://www.w3.org/2000/svg" width="24" height="24" viewBox="0 0 24 24">
  <g id="Сгруппировать_42" data-name="Сгруппировать 42">
    <path id="Контур_24" data-name="Контур 24" d="M0,0H24V24H0Z" fill="none"/>
    <path id="Контур_25" data-name="Контур 25" d="M0,0H24V24H0Z" fill="none" opacity="0.87"/>
  </g>
  <path id="Контур_26" data-name="Контур 26" d="M18,8H17V6A5,5,0,0,0,7,6V8H6a2.006,2.006,0,0,0-2,2V20a2.006,2.006,0,0,0,2,2H18a2.006,2.006,0,0,0,2-2V10A2.006,2.006,0,0,0,18,8ZM9,6a3,3,0,0,1,6,0V8H9Zm9,14H6V10H18Zm-6-3a2,2,0,1,0-2-2A2.006,2.006,0,0,0,12,17Z"/>
</svg>
