<svg xmlns="http://www.w3.org/2000/svg" width="120" height="120" viewBox="0 0 120 120">
  <g id="Сгруппировать_45" data-name="Сгруппировать 45" transform="translate(-1512 -357)">
    <rect id="Прямоугольник_12" data-name="Прямоугольник 12" width="120" height="120" transform="translate(1512 357)" fill="#005bae"/>
    <g id="ДМ_лого" transform="translate(1533.7 377.6)">
      <g id="Сгруппировать_1" data-name="Сгруппировать 1" transform="translate(4.629 7.4)">
        <path id="Контур_1" data-name="Контур 1" d="M11.372,58.065c-2.5.723-4.666.2-4.469-.657.2-2.1,1.577-2.3,4.206-3.286.657-.263,12.815-5.915,15.9-18.861.854-3.746,1.183-10.712-11.632-15.707-.329,1.051-.657,2.563-1.117,4.469s-.986,4.206-1.577,6.9c-.657,3.023-4.272,21.49-5.455,22.344-.723.46-.986.986-1.249.986q-.2,0-.394-.394a6.111,6.111,0,0,1-.394-1.183S4.734,46.1,7.889,23.3c.066-.263.789-2.76,2.169-3.812a10.431,10.431,0,0,1,2.037-.657c.2-.131.329-.263.329-.46q0-.2-.394-.394c-.263-.066-5.52-1.84-5.52-1.84a4.1,4.1,0,0,1-1.249-.789,1.016,1.016,0,0,1-.46-.789,9.608,9.608,0,0,0,.329-1.314c4.272-2.5,16.955,2.629,18.8,3.483C38.711,23.366,33.979,36.05,32.467,39.6,26.684,53.465,16.5,56.685,11.372,58.065Z" transform="translate(-4.8 -9.171)" fill="#fff"/>
        <path id="Контур_2" data-name="Контур 2" d="M56.717,12.2a1.854,1.854,0,0,1,.591-1.117,9.868,9.868,0,0,1,1.446-1.314c.46-.394.986-.723,1.446-1.051a6.58,6.58,0,0,1,1.38-.657,3.261,3.261,0,0,0,1.051-.46c.131-.131.2-.2.329-.2a.927.927,0,0,1,.789.526,3.118,3.118,0,0,1,.263,1.512,5.18,5.18,0,0,1-.263,1.512,5.173,5.173,0,0,0-.263,1.446c0,.131,0,.591.066,1.512,0,.854.066,2.1.131,3.68a15.059,15.059,0,0,0,.526,3.68c.329,1.314.723,2.694,1.183,4.075a13.31,13.31,0,0,0,2.169,4.14,3.381,3.381,0,0,0,2.563,1.38,5.089,5.089,0,0,0,2.892-1.446,32.267,32.267,0,0,0,4.272-4.272c1.249-1.446,2.366-2.826,3.352-4.075A27.347,27.347,0,0,0,83,17.586a12.133,12.133,0,0,1,1.972-2.563,12.95,12.95,0,0,1,2.563-2.037,4.206,4.206,0,0,1,.723-.394.709.709,0,0,1,.46-.131c.394,0,.657.263.854.854a8.357,8.357,0,0,1,.329,2.563c-.131,1.051-.263,2.1-.329,3.089-.2,1.577-2.892,12.158-3.089,12.881s-.526,2.432-.657,2.826c-.066.394-1.906,7.755-1.972,8.018-.46,2.169-.986,4.337-1.512,6.375a4.992,4.992,0,0,1-.263.723c-.394,1.117-.591,1.446-3.023,2.629-.263.131-.46.329-.591.329a.556.556,0,0,1-.394-.131c-.131-.131-.131-.263-.131-.526a2.324,2.324,0,0,1,.066-.394,66.323,66.323,0,0,0,1.446-8.215A34.171,34.171,0,0,1,79.982,40c.329-1.906.789-4.469,1.446-7.82.066-.526.2-1.183.329-1.972s.329-1.709.526-2.694a10.972,10.972,0,0,1,.394-1.314c.066-.394.131-.657.131-.789a.766.766,0,0,0-.131-.46.5.5,0,0,0-.329-.131c-.131,0-.394.2-.723.526a19.622,19.622,0,0,0-1.314,1.512c-.329.394-.591.723-.92,1.183L78.4,29.218c-.591.591-1.117,1.183-1.577,1.709l-2.366,2.366c-.2.131-.46.263-.789.46s-.657.394-1.117.657a4.562,4.562,0,0,1-1.972,1.643,5.6,5.6,0,0,1-2.432.723,4.149,4.149,0,0,1-2.563-.854,8.5,8.5,0,0,1-2.366-2.629c-.329-.591-.657-1.183-.986-1.709-.329-.591-.723-1.183-1.051-1.709h-.131a9.86,9.86,0,0,0-.591,2.629c-.263,1.577-.657,3.943-1.117,7.1-.526,3.22-1.512,10.515-1.512,11.041a8.259,8.259,0,0,1-.394,1.709c-.263,1.117-2.5,3.549-4.009.854L53.3,50.774c.131-.657.526-4.4.591-5.586,0-.263.46-6.7.789-9,.394-2.3.591-8.478.854-9.661C55.534,25.341,56.586,13.38,56.717,12.2Z" transform="translate(-21.427 -7.4)" fill="#fff"/>
      </g>
      <g id="Сгруппировать_2" data-name="Сгруппировать 2" transform="translate(4.3 60.5)">
        <path id="Контур_3" data-name="Контур 3" d="M4.563,93.1a9.582,9.582,0,0,1,.46-1.249,6.528,6.528,0,0,1,.723-1.314,7.565,7.565,0,0,1,.92-1.117,3.9,3.9,0,0,1,1.183-.854,3.2,3.2,0,0,1,.46-.2,1.281,1.281,0,0,1,.526-.066.975.975,0,0,1,.46.066.934.934,0,0,1,.394.131c.131.066.2.2.263.263a1.216,1.216,0,0,1,0,.789c-.066.131-.066.263-.2.329-.066.131-.2.2-.263.263a.834.834,0,0,1-.394.066.592.592,0,0,1-.329-.066c-.131-.066-.2-.066-.263-.131-.066,0-.066-.066-.131-.066s-.066-.066-.131-.066a1.552,1.552,0,0,0-.591.394l-.526.526a3.611,3.611,0,0,0-.46.591,3.07,3.07,0,0,0-.329.657,1.968,1.968,0,0,0-.263.657,6.2,6.2,0,0,1-.2.591.833.833,0,0,0-.066.394c0,.131-.066.329-.066.46v.329c0,.066.066.2.066.263s.131.131.2.2A.4.4,0,0,0,6.272,95a1.281,1.281,0,0,0,.526-.066c.2-.066.329-.131.526-.2a1.968,1.968,0,0,0,.526-.263,2.858,2.858,0,0,0,.46-.263c.131-.066.2-.131.329-.2a.907.907,0,0,0,.263-.2c.066-.066.2-.066.263-.131a.329.329,0,0,1,.394,0c.066.066.131.131.131.2a.241.241,0,0,1-.066.2,1.431,1.431,0,0,1-.329.526c-.131.131-.263.329-.394.46a1.431,1.431,0,0,1-.526.329,1.968,1.968,0,0,1-.526.263,3.1,3.1,0,0,1-.986.394,4.523,4.523,0,0,1-.854.131H5.746c-.131,0-.2-.066-.263-.066a2.649,2.649,0,0,1-.92-.723A2.014,2.014,0,0,1,4.3,94.28a1.819,1.819,0,0,1,.066-.591A6.2,6.2,0,0,0,4.563,93.1Z" transform="translate(-4.3 -88.234)" fill="#fff"/>
        <path id="Контур_4" data-name="Контур 4" d="M16.14,93.266a3.1,3.1,0,0,1,.394-.986c.2-.329.394-.723.657-1.117a4.941,4.941,0,0,1,.986-1.051,11.4,11.4,0,0,1,1.314-.986c.066-.066.2-.066.329-.131a1.281,1.281,0,0,1,.526-.066A1.135,1.135,0,0,1,21.2,88.6a1.986,1.986,0,0,1,1.051.329,2.373,2.373,0,0,1,.723.854c.066.131.131.2.131.329.066.131.066.2.131.329a.834.834,0,0,1,.066.394v.46a4.127,4.127,0,0,1-.2,1.249,7.122,7.122,0,0,1-.526,1.249,13.327,13.327,0,0,1-.854,1.183,5.234,5.234,0,0,1-1.117.986,2.428,2.428,0,0,1-.92.46,3.07,3.07,0,0,1-1.117.2,5.109,5.109,0,0,1-1.051-.131,2.714,2.714,0,0,1-.723-.46,2.714,2.714,0,0,1-.46-.723,3.879,3.879,0,0,1-.131-.92A1.134,1.134,0,0,1,16.14,93.266Zm1.249.131a2.846,2.846,0,0,1-.066.329v.329a.974.974,0,0,0,.066.46l.2.394a.838.838,0,0,0,.394.263,1.281,1.281,0,0,0,.526.066,2.215,2.215,0,0,0,1.117-.329,3.458,3.458,0,0,0,.92-.789,8.562,8.562,0,0,0,.657-.986,3.1,3.1,0,0,0,.394-.986c.066-.2.066-.329.131-.526a1.118,1.118,0,0,0,.066-.46.833.833,0,0,0-.066-.394l-.2-.394c-.066-.066-.066-.2-.131-.263s-.066-.2-.131-.263c-.066.066-.066.131-.131.2s-.131.131-.2.131a2.585,2.585,0,0,0-.394.131,1.831,1.831,0,0,1-.657.066,1.967,1.967,0,0,0-.526.263c-.2.131-.329.263-.526.394a1.772,1.772,0,0,0-.46.526l-.394.591c-.131.2-.2.394-.329.591C17.52,93.069,17.454,93.2,17.389,93.4Z" transform="translate(-8.32 -88.337)" fill="#fff"/>
        <path id="Контур_5" data-name="Контур 5" d="M29.931,95.626c.131-.591.329-1.183.46-1.709s.263-1.051.394-1.512l.394-1.38.394-1.38a1.447,1.447,0,0,0,.066-.526,1.447,1.447,0,0,1,.066-.526c0-.066.066-.131.131-.2s.131-.066.2-.131a.241.241,0,0,1,.2-.066h.2a.834.834,0,0,1,.394.066c.066.066.2.066.263.131s.131.131.131.2.066.2.066.263a1.447,1.447,0,0,1-.066.526l-.2.591a5.482,5.482,0,0,1,.789-.526,4.9,4.9,0,0,1,.789-.46,3.3,3.3,0,0,1,.854-.329,3.879,3.879,0,0,1,.92-.131.834.834,0,0,1,.394.066l.394.2a.6.6,0,0,1,.263.394,1.238,1.238,0,0,1,.131.526,6.928,6.928,0,0,1,.723-.46c.263-.131.46-.263.723-.394a7.711,7.711,0,0,0,.723-.329,2.8,2.8,0,0,1,.723-.131,2.916,2.916,0,0,1,.854.131,1.022,1.022,0,0,1,.526.394,1.968,1.968,0,0,1,.263.526,2.026,2.026,0,0,1,.066.657,3.2,3.2,0,0,1-.066.789,3.3,3.3,0,0,0-.131.789,12.981,12.981,0,0,1-.526,1.709c-.2.526-.394,1.117-.591,1.643l-.2.394-.2.394c-.066.131-.2.2-.263.329-.131.066-.2.131-.329.131a1.414,1.414,0,0,1-.657-.131.6.6,0,0,1-.2-.46v-.2a.241.241,0,0,1,.066-.2,1.11,1.11,0,0,1,.131-.329,1.647,1.647,0,0,1,.263-.46c.066-.2.2-.329.263-.526a3.2,3.2,0,0,1,.2-.46c.066-.2.131-.46.263-.789.066-.263.2-.591.263-.92s.131-.591.2-.854a2.466,2.466,0,0,0,.066-.657V90.04c0-.066-.066-.131-.066-.2-.066-.066-.066-.131-.2-.131-.066-.066-.131-.066-.263-.066a3.333,3.333,0,0,0-.591.131,3.07,3.07,0,0,0-.657.329,5.683,5.683,0,0,0-.657.46,4.252,4.252,0,0,0-.591.526l-.329.329c-.131.066-.2.131-.329.2a.288.288,0,0,0-.066.2c-.066.131-.066.263-.131.394a4.526,4.526,0,0,0-.2.526,4.53,4.53,0,0,1-.2.526,1.362,1.362,0,0,0-.131.394.509.509,0,0,0-.066.2,1.118,1.118,0,0,0-.066.46c0,.131-.066.329-.066.46s-.066.263-.066.46a1.218,1.218,0,0,1-.131.46.656.656,0,0,1-.263.329.95.95,0,0,1-.46.131c-.131,0-.2,0-.263-.066l-.2-.2a.5.5,0,0,1-.131-.263,2.847,2.847,0,0,1-.066-.329c.131-.46.263-.92.329-1.249A6.459,6.459,0,0,1,35.189,93c.131-.329.2-.723.329-1.051s.2-.723.329-1.117c0-.131.066-.2.066-.263V90.3a.593.593,0,0,0-.066-.329.341.341,0,0,0-.263-.131,2.892,2.892,0,0,0-.657.131,1.751,1.751,0,0,0-.657.394,3.94,3.94,0,0,0-.789.723,13.533,13.533,0,0,0-1.051.986c-.066.066-.066.2-.2.46-.066.2-.131.46-.2.657-.066.263-.131.46-.2.657s-.066.329-.131.394c-.066.2-.066.394-.131.526,0,.131-.066.263-.066.394a.715.715,0,0,1-.066.329,4.187,4.187,0,0,0-.131.46,1.375,1.375,0,0,1-.263.394.468.468,0,0,1-.394.2.8.8,0,0,1-.591-.2.683.683,0,0,1-.263-.526v-.131C29.8,95.626,29.866,95.626,29.931,95.626Z" transform="translate(-13.042 -88.2)" fill="#fff"/>
        <path id="Контур_6" data-name="Контур 6" d="M50.831,99.283a7.641,7.641,0,0,0,.263-1.183l.2-.986c.066-.329.131-.591.2-.92.066-.263.131-.591.2-.854s.131-.591.2-.92.131-.657.2-1.051l.394-1.84a4.853,4.853,0,0,0,.131-.789c0-.2.066-.394.066-.591v-.526c0-.131.066-.263.066-.394s.131-.2.2-.263.2-.066.394-.066a1.13,1.13,0,0,1,.526.066.513.513,0,0,1,.263.263c.066.131.131.2.131.329v.394a2.664,2.664,0,0,1,.591-.329,3.2,3.2,0,0,1,.723-.263,3.3,3.3,0,0,1,.789-.131,2.947,2.947,0,0,1,.723-.066,2.195,2.195,0,0,1,.986.2,2.918,2.918,0,0,1,.723.526,1.5,1.5,0,0,1,.394.789,3.879,3.879,0,0,1,.131.92,2.4,2.4,0,0,1-.2.986,6.009,6.009,0,0,1-.46.92,7.874,7.874,0,0,1-.723.789,4.219,4.219,0,0,1-.854.657,6.567,6.567,0,0,1-.92.526c-.329.131-.657.329-.986.46l-.591.2a.977.977,0,0,1-.394.066,1.819,1.819,0,0,1-.591-.066A2.334,2.334,0,0,1,53,95.866a7.434,7.434,0,0,0-.263.986c-.066.329-.131.591-.2.854,0,.131-.066.329-.066.526-.066.2-.066.329-.131.526a4.19,4.19,0,0,1-.131.46.834.834,0,0,0-.066.394.141.141,0,0,1-.131.131c-.066,0-.131.066-.2.131-.066,0-.2.066-.263.066h-.263c-.394,0-.591-.131-.591-.46C50.766,99.481,50.766,99.349,50.831,99.283Zm2.432-4.535a.5.5,0,0,1,.263.066.4.4,0,0,1,.263.066.241.241,0,0,1,.2.066h.131a.592.592,0,0,0,.329-.066.934.934,0,0,0,.394-.131c.131-.066.263-.066.329-.131s.2-.066.329-.131a4.9,4.9,0,0,0,.789-.46,3.812,3.812,0,0,0,.789-.657,6.166,6.166,0,0,0,.591-.789,2.754,2.754,0,0,0,.263-.986.833.833,0,0,0-.066-.394c-.066-.131-.066-.263-.2-.329-.066-.066-.2-.2-.263-.2a.834.834,0,0,0-.394-.066,1.447,1.447,0,0,0-.526.066,1.218,1.218,0,0,0-.46.131c-.131.066-.329.131-.46.2s-.329.2-.46.263a3.668,3.668,0,0,1-.526.329l-.591.2Z" transform="translate(-20.207 -88.44)" fill="#fff"/>
        <path id="Контур_7" data-name="Контур 7" d="M70.443,96.2a1.633,1.633,0,0,1,.066-.526,2.708,2.708,0,0,0,.066-.789,3.612,3.612,0,0,0-.591.46,5.747,5.747,0,0,1-.657.526c-.2.131-.46.263-.657.394a1.081,1.081,0,0,1-.591.131,1.118,1.118,0,0,1-.46-.066,1.436,1.436,0,0,1-.329-.2,2.671,2.671,0,0,1-.591-.657,1.4,1.4,0,0,1-.2-.789.834.834,0,0,1,.066-.394c.066-.131.066-.329.131-.46a6.1,6.1,0,0,1,1.051-2.3,5.716,5.716,0,0,1,1.774-1.774,2.037,2.037,0,0,1,.854-.394,3.471,3.471,0,0,1,.854-.066h.394a.833.833,0,0,1,.394.066c.131,0,.2-.066.263-.066h.263a.833.833,0,0,1,.394.066c.131.066.2.066.263.2a.341.341,0,0,1,.131.263c0,.066.066.2.066.263a.834.834,0,0,1-.066.394c-.066.131-.066.263-.131.394l-1.051,4.14c0,.2-.066.46-.066.591,0,.2-.066.394-.066.526,0,.066-.066.131-.066.2s-.066.131-.131.2l-.2.2a.492.492,0,0,1-.329.066H70.9a.662.662,0,0,1-.2-.066l-.131-.131C70.443,96.332,70.443,96.266,70.443,96.2Zm-2.629-2.366a2.846,2.846,0,0,0-.066.329c0,.131-.066.263-.066.394a.834.834,0,0,0,.066.394c.066.131.131.2.263.2a1.919,1.919,0,0,0,.591-.131,1.431,1.431,0,0,0,.526-.329c.2-.2.46-.394.657-.591a3.444,3.444,0,0,0,.657-.723,5.481,5.481,0,0,0,.526-.789A4.02,4.02,0,0,0,71.3,91.8c.066-.131.066-.329.131-.526,0-.2.066-.394.066-.526a.241.241,0,0,0-.066-.2c-.066-.066-.066-.066-.2-.066a3.3,3.3,0,0,0-.789.131,7.166,7.166,0,0,0-.723.394,5.925,5.925,0,0,0-.657.591,6.985,6.985,0,0,0-.591.723,4.9,4.9,0,0,0-.46.789A6.365,6.365,0,0,1,67.814,93.835Z" transform="translate(-25.623 -88.577)" fill="#fff"/>
        <path id="Контур_8" data-name="Контур 8" d="M84.983,89.814a1.919,1.919,0,0,0-.591.131,6.081,6.081,0,0,0-.657.329,2.573,2.573,0,0,0-.657.526c-.2.2-.46.394-.657.591a1.153,1.153,0,0,1-.329.263c-.131.066-.2.131-.329.2a3.77,3.77,0,0,1-.263.46,4.529,4.529,0,0,1-.263.657,2.963,2.963,0,0,0-.2.723c-.066.263-.131.46-.2.657,0,.131-.066.2-.066.329s-.066.2-.066.329-.066.263-.066.394a1.672,1.672,0,0,1-.131.46.341.341,0,0,1-.131.263c-.066.066-.131.131-.2.131s-.131.066-.2.066h-.131a.95.95,0,0,1-.46-.131c-.131-.066-.2-.263-.2-.526V95.4a.4.4,0,0,1,.066-.263c.131-.526.2-.92.329-1.314s.2-.789.329-1.117.2-.657.329-.986.2-.591.329-.92.263-.591.394-.92a10.638,10.638,0,0,0,.394-1.117c0-.066.131-.131.263-.2a.833.833,0,0,1,.394-.066.766.766,0,0,1,.46.131.4.4,0,0,1,.2.394v.066a.2.2,0,0,1-.066.131l-.263.723c.2-.2.46-.329.657-.526a4.421,4.421,0,0,1,.723-.46,4.02,4.02,0,0,1,.789-.329,3.391,3.391,0,0,1,.723-.131,1.607,1.607,0,0,1,1.183.394,1.673,1.673,0,0,1,.394,1.249,3.645,3.645,0,0,1-.2,1.117c-.131.394-.263.854-.394,1.314-.2.46-.329.986-.526,1.512a14.793,14.793,0,0,0-.526,1.577c-.066.131-.066.263-.131.394a.907.907,0,0,1-.2.263.341.341,0,0,1-.263.131c-.131,0-.2.066-.329.066a.465.465,0,0,1-.526-.526,1.633,1.633,0,0,1,.066-.526c.066-.2.131-.46.2-.723s.2-.526.263-.789c.131-.263.2-.591.329-.854a3.2,3.2,0,0,0,.263-.723c.066-.263.2-.46.263-.723s.131-.46.2-.657a1.819,1.819,0,0,0,.066-.591.7.7,0,0,0-.131-.394C85.312,89.88,85.18,89.814,84.983,89.814Z" transform="translate(-29.977 -88.303)" fill="#fff"/>
        <path id="Контур_9" data-name="Контур 9" d="M93.626,99.8a.241.241,0,0,1-.2-.066c-.066-.066-.131-.066-.131-.2-.066-.066-.066-.131-.131-.2,0-.066-.066-.131-.066-.263s0-.2.066-.263c0-.066.066-.131.066-.2l.131-.131c.066,0,.066-.066.131-.066a1.672,1.672,0,0,0,.46-.131c.2-.066.329-.066.526-.131a4.528,4.528,0,0,0,.657-.263,3.99,3.99,0,0,0,.657-.46,6.543,6.543,0,0,0,.723-.657,4.524,4.524,0,0,0,.723-.854c.2-.329.46-.723.657-1.117a7.4,7.4,0,0,0,.526-1.446c-.131.131-.2.263-.329.394l-.394.394c-.131.131-.329.263-.46.394a2,2,0,0,1-.46.329,1.647,1.647,0,0,1-.46.263.834.834,0,0,1-.394.066,1.509,1.509,0,0,1-.92-.263,2.009,2.009,0,0,1-.657-.789.934.934,0,0,1-.131-.394c0-.2-.066-.329-.066-.526a4.042,4.042,0,0,1,.066-.854,4.523,4.523,0,0,1,.131-.854c.066-.263.131-.591.2-.92a8.175,8.175,0,0,1,.263-1.051v-.591c0-.066.066-.2.066-.263l.2-.2c.066-.066.131-.131.2-.131s.131-.066.263-.066h.329a.341.341,0,0,1,.263.131,1.07,1.07,0,0,1,.2.394.833.833,0,0,1,.066.394.5.5,0,0,1-.066.263,3.206,3.206,0,0,0-.2.46c-.131.46-.2.854-.329,1.183a6.819,6.819,0,0,1-.2.789,1.633,1.633,0,0,0-.066.526V92.7a1.649,1.649,0,0,0,.131.657.335.335,0,0,0,.329.263.4.4,0,0,0,.263-.066c.131,0,.2-.066.329-.131a5.22,5.22,0,0,0,1.117-.92,4.009,4.009,0,0,0,.789-1.051c.2-.394.394-.789.591-1.249a10.157,10.157,0,0,0,.46-1.512c0-.066.066-.066.066-.131s.066-.066.131-.066.131-.066.2-.066h.2a1.11,1.11,0,0,1,.657.2.8.8,0,0,1,.2.591,1.48,1.48,0,0,1-.066.46c-.066.2-.131.46-.2.657-.066.263-.131.46-.2.657a2.679,2.679,0,0,0-.131.46L100,92.572a11.321,11.321,0,0,0-.46,1.38,8.777,8.777,0,0,1-.46,1.183,4.694,4.694,0,0,1-.526.986,4.963,4.963,0,0,1-.723.92,6.756,6.756,0,0,1-.986.92,12.561,12.561,0,0,1-1.38.92c-.329.2-.657.329-.92.46A.933.933,0,0,1,93.626,99.8Z" transform="translate(-34.742 -88.234)" fill="#fff"/>
      </g>
    </g>
  </g>
</svg>
